<svg width="616" height="331" xmlns="http://www.w3.org/2000/svg" xmlns:xlink="http://www.w3.org/1999/xlink" xml:space="preserve" overflow="hidden"><defs><clipPath id="clip0"><rect x="332" y="194" width="616" height="331"/></clipPath><clipPath id="clip1"><rect x="333" y="195" width="614" height="330"/></clipPath><clipPath id="clip2"><rect x="333" y="195" width="614" height="330"/></clipPath><clipPath id="clip3"><rect x="333" y="195" width="614" height="330"/></clipPath><clipPath id="clip4"><rect x="333" y="195" width="614" height="330"/></clipPath></defs><g clip-path="url(#clip0)" transform="translate(-332 -194)"><g clip-path="url(#clip1)"><g clip-path="url(#clip2)"><g clip-path="url(#clip3)"><g clip-path="url(#clip4)"><path d="M375.08 340.788 279.01 190.663 433.789 279.04Z" fill="#E0A3A3" fill-rule="evenodd" fill-opacity="1" transform="matrix(1.0014 0 0 1 229.169 88.3233)"/><path d="M115.65 204.879C115.65 166.061 168.767 134.592 234.29 134.592 299.813 134.592 352.931 166.061 352.931 204.879 352.931 243.698 299.813 275.166 234.29 275.166 168.767 275.166 115.65 243.698 115.65 204.879Z" stroke="#000000" stroke-width="1.49547" stroke-linecap="butt" stroke-linejoin="round" stroke-miterlimit="10" stroke-opacity="1" fill="#FFFFFF" fill-rule="evenodd" fill-opacity="1" transform="matrix(1.0014 0 0 1 229.169 88.3233)"/><path d="M185.551 202.299C216.381 186.45 252.787 186.222 283.501 201.687" stroke="#000000" stroke-width="1.49547" stroke-linecap="butt" stroke-linejoin="round" stroke-miterlimit="10" stroke-opacity="1" fill="none" fill-rule="evenodd" transform="matrix(1.0014 0 0 1 229.169 88.3233)"/><path d="M234.789 216.843 234.789 276.517" stroke="#000000" stroke-width="0.249245" stroke-linecap="butt" stroke-linejoin="round" stroke-miterlimit="10" stroke-opacity="1" fill="none" fill-rule="evenodd" transform="matrix(1.0014 0 0 1 229.169 88.3233)"/><path d="M0 0 0.0982849 56.489" stroke="#000000" stroke-width="0.249245" stroke-linecap="butt" stroke-linejoin="round" stroke-miterlimit="10" stroke-opacity="1" fill="none" fill-rule="evenodd" transform="matrix(-1.0014 0 0 1 457.396 223.414)"/><path d="M257.865 213.016C265.097 232.716 265.818 254.216 259.924 274.356" stroke="#000000" stroke-width="0.249245" stroke-linecap="butt" stroke-linejoin="round" stroke-miterlimit="10" stroke-opacity="1" fill="none" fill-rule="evenodd" transform="matrix(1.0014 0 0 1 229.169 88.3233)"/><path d="M143.69 11.2187C162.393 21.0232 177.434 36.5989 186.578 55.6324" stroke="#000000" stroke-width="0.249398" stroke-linecap="butt" stroke-linejoin="round" stroke-miterlimit="10" stroke-opacity="1" fill="none" fill-rule="evenodd" transform="matrix(-0.748351 0.663553 0.664482 0.747306 541.85 197.062)"/><path d="M273.446 208.179C289.835 223.532 295.862 246.979 288.911 268.332" stroke="#000000" stroke-width="0.249245" stroke-linecap="butt" stroke-linejoin="round" stroke-miterlimit="10" stroke-opacity="1" fill="none" fill-rule="evenodd" transform="matrix(1.0014 0 0 1 229.169 88.3233)"/><path d="M206.698 136.806C213.325 154.857 214.498 174.457 210.072 193.17" stroke="#000000" stroke-width="0.249245" stroke-linecap="butt" stroke-linejoin="round" stroke-miterlimit="10" stroke-opacity="1" fill="none" fill-rule="evenodd" transform="matrix(1.0014 0 0 1 229.169 88.3233)"/><path d="M144.559 11.6795C161.244 20.6408 174.98 34.2391 184.108 50.8334" stroke="#000000" stroke-width="0.249398" stroke-linecap="butt" stroke-linejoin="round" stroke-miterlimit="10" stroke-opacity="1" fill="none" fill-rule="evenodd" transform="matrix(-0.748351 0.663553 0.664482 0.747306 579.48 118.679)"/><path d="M184.51 141.197C197.401 156.237 203.065 176.164 200.011 195.735" stroke="#000000" stroke-width="0.249245" stroke-linecap="butt" stroke-linejoin="round" stroke-miterlimit="10" stroke-opacity="1" fill="none" fill-rule="evenodd" transform="matrix(1.0014 0 0 1 229.169 88.3233)"/><path d="M87.8044 3.02706C106.869 8.92448 122.366 22.9243 130.163 41.2941" stroke="#000000" stroke-width="0.249344" stroke-linecap="butt" stroke-linejoin="round" stroke-miterlimit="10" stroke-opacity="1" fill="none" fill-rule="evenodd" transform="matrix(-0.846503 0.533516 0.534262 0.84532 573.536 175.651)"/><path d="M280.69 204.216C303.352 212.346 316.324 236.167 310.858 259.614" stroke="#000000" stroke-width="0.249245" stroke-linecap="butt" stroke-linejoin="round" stroke-miterlimit="10" stroke-opacity="1" fill="none" fill-rule="evenodd" transform="matrix(1.0014 0 0 1 229.169 88.3233)"/><path d="M284.493 201.833C306.848 199.701 327.036 215.613 329.584 237.374 329.979 240.743 329.928 244.142 329.433 247.486" stroke="#000000" stroke-width="0.249245" stroke-linecap="butt" stroke-linejoin="round" stroke-miterlimit="10" stroke-opacity="1" fill="none" fill-rule="evenodd" transform="matrix(1.0014 0 0 1 229.169 88.3233)"/><path d="M285.984 200.971C308.548 191.068 335.225 200.792 345.57 222.689 346.188 223.998 346.739 225.336 347.222 226.697" stroke="#000000" stroke-width="0.249245" stroke-linecap="butt" stroke-linejoin="round" stroke-miterlimit="10" stroke-opacity="1" fill="none" fill-rule="evenodd" transform="matrix(1.0014 0 0 1 229.169 88.3233)"/><path d="M279.802 199.171C279.777 177.238 295.219 158.208 316.293 154.202" stroke="#000000" stroke-width="0.249245" stroke-linecap="butt" stroke-linejoin="round" stroke-miterlimit="10" stroke-opacity="1" fill="none" fill-rule="evenodd" transform="matrix(1.0014 0 0 1 229.169 88.3233)"/><path d="M283.109 201.419C290.929 177.993 315.992 164.752 339.088 171.844 339.288 171.905 339.488 171.968 339.688 172.033" stroke="#000000" stroke-width="0.249245" stroke-linecap="butt" stroke-linejoin="round" stroke-miterlimit="10" stroke-opacity="1" fill="none" fill-rule="evenodd" transform="matrix(1.0014 0 0 1 229.169 88.3233)"/><path d="M288.984 198.676C304.598 180.094 332.023 176.716 350.842 191.055" stroke="#000000" stroke-width="0.249245" stroke-linecap="butt" stroke-linejoin="round" stroke-miterlimit="10" stroke-opacity="1" fill="none" fill-rule="evenodd" transform="matrix(1.0014 0 0 1 229.169 88.3233)"/><path d="M273.583 197.556C269.948 177.483 277.364 156.984 292.875 144.228" stroke="#000000" stroke-width="0.249245" stroke-linecap="butt" stroke-linejoin="round" stroke-miterlimit="10" stroke-opacity="1" fill="none" fill-rule="evenodd" transform="matrix(1.0014 0 0 1 229.169 88.3233)"/><path d="M75.5177 2.74813C96.5417 9.46777 111.915 27.5574 115.157 49.3899" stroke="#000000" stroke-width="0.249326" stroke-linecap="butt" stroke-linejoin="round" stroke-miterlimit="10" stroke-opacity="1" fill="none" fill-rule="evenodd" transform="matrix(-0.877239 0.481615 0.482289 0.876013 494.67 259.373)"/><path d="M41.0068 0.437847C64.4317-2.76705 86.6406 11.7671 93.0803 34.5165" stroke="#000000" stroke-width="0.249344" stroke-linecap="butt" stroke-linejoin="round" stroke-miterlimit="10" stroke-opacity="1" fill="none" fill-rule="evenodd" transform="matrix(-0.846858 0.532955 0.533701 0.845674 456.332 272.221)"/><path d="M26.5228 2.50477C47.642-5.14134 71.1671 5.22956 79.0676 25.6688 80.2494 28.7261 81.0351 31.9133 81.4068 35.1576" stroke="#000000" stroke-width="0.249288" stroke-linecap="butt" stroke-linejoin="round" stroke-miterlimit="10" stroke-opacity="1" fill="none" fill-rule="evenodd" transform="matrix(-0.936608 0.353365 0.35386 0.935299 440.837 279.413)"/><path d="M35.4074 1.69248C60.3815-4.96121 86.3856 8.44922 94.3612 32.0951" stroke="#000000" stroke-width="0.249245" stroke-linecap="butt" stroke-linejoin="round" stroke-miterlimit="10" stroke-opacity="1" fill="none" fill-rule="evenodd" transform="matrix(-1.0014 0 0 1 450.309 289.215)"/><path d="M28.9326 2.85869C52.132-5.70807 78.1146 5.54852 86.9664 28.001 87.2068 28.6109 87.4331 29.226 87.645 29.8458" stroke="#000000" stroke-width="0.249287" stroke-linecap="butt" stroke-linejoin="round" stroke-miterlimit="10" stroke-opacity="1" fill="none" fill-rule="evenodd" transform="matrix(-0.938314 -0.348836 -0.349324 0.937003 438.264 295.814)"/><path d="M40.9082 1.88771C61.0647-3.42566 82.5965 2.66709 96.6206 17.6524" stroke="#000000" stroke-width="0.249259" stroke-linecap="butt" stroke-linejoin="round" stroke-miterlimit="10" stroke-opacity="1" fill="none" fill-rule="evenodd" transform="matrix(-0.204478 -0.978871 -0.980241 0.204192 430.048 327.601)"/><path d="M31.3318 2.04709C52.0979-4.34542 74.611 4.59443 84.7531 23.2605" stroke="#000000" stroke-width="0.249286" stroke-linecap="butt" stroke-linejoin="round" stroke-miterlimit="10" stroke-opacity="1" fill="none" fill-rule="evenodd" transform="matrix(-0.343713 -0.939075 -0.940389 0.343232 425.971 318.429)"/><path d="M31.2682 2.07203C52.1371-4.39269 74.7829 4.63686 84.8899 23.4526" stroke="#000000" stroke-width="0.249399" stroke-linecap="butt" stroke-linejoin="round" stroke-miterlimit="10" stroke-opacity="1" fill="none" fill-rule="evenodd" transform="matrix(-0.66569 -0.746229 -0.747273 0.664759 431.592 309.337)"/><path d="M174.97 188.927C174.97 173.51 201.528 161.012 234.29 161.012 267.052 161.012 293.61 173.51 293.61 188.927 293.61 204.345 267.052 216.843 234.29 216.843 201.528 216.843 174.97 204.345 174.97 188.927Z" stroke="#000000" stroke-width="0.249245" stroke-linecap="butt" stroke-linejoin="round" stroke-miterlimit="10" stroke-opacity="1" fill="none" fill-rule="evenodd" transform="matrix(1.0014 0 0 1 229.169 88.3233)"/><path d="M169.985 186.435C169.985 167.989 199.221 153.036 235.287 153.036 271.353 153.036 300.589 167.989 300.589 186.435 300.589 204.881 271.353 219.834 235.287 219.834 199.221 219.834 169.985 204.881 169.985 186.435Z" stroke="#000000" stroke-width="0.249245" stroke-linecap="butt" stroke-linejoin="round" stroke-miterlimit="10" stroke-opacity="1" fill="none" fill-rule="evenodd" transform="matrix(1.0014 0 0 1 229.169 88.3233)"/><path d="M155.03 185.438C155.03 163.689 190.293 146.057 233.792 146.057 277.29 146.057 312.553 163.689 312.553 185.438 312.553 207.187 277.29 224.819 233.792 224.819 190.293 224.819 155.03 207.187 155.03 185.438Z" stroke="#000000" stroke-width="0.249245" stroke-linecap="butt" stroke-linejoin="round" stroke-miterlimit="10" stroke-opacity="1" fill="none" fill-rule="evenodd" transform="matrix(1.0014 0 0 1 229.169 88.3233)"/><path d="M143.066 185.937C143.066 159.507 183.909 138.082 234.29 138.082 284.671 138.082 325.514 159.507 325.514 185.937 325.514 212.366 284.671 233.792 234.29 233.792 183.909 233.792 143.066 212.366 143.066 185.937Z" stroke="#000000" stroke-width="0.249245" stroke-linecap="butt" stroke-linejoin="round" stroke-miterlimit="10" stroke-opacity="1" fill="none" fill-rule="evenodd" transform="matrix(1.0014 0 0 1 229.169 88.3233)"/><path d="M326.772 160.712C349.398 190.136 326.558 224.613 275.757 237.719 224.956 250.824 165.431 237.595 142.804 208.17 130.859 192.636 131.214 174.855 143.777 159.485" stroke="#000000" stroke-width="0.249245" stroke-linecap="butt" stroke-linejoin="round" stroke-miterlimit="10" stroke-opacity="1" fill="none" fill-rule="evenodd" transform="matrix(1.0014 0 0 1 229.169 88.3233)"/><path d="M333.93 243.047C305.422 268.986 237.479 279.175 182.175 265.805 170.546 262.993 160.051 259.253 151.159 254.753" stroke="#000000" stroke-width="0.249245" stroke-linecap="butt" stroke-linejoin="round" stroke-miterlimit="10" stroke-opacity="1" fill="none" fill-rule="evenodd" transform="matrix(1.0014 0 0 1 229.169 88.3233)"/><path d="M345.615 180.56C353.128 215.808 309.822 247.905 248.89 252.251 187.957 256.596 132.472 231.546 124.959 196.298 123.543 189.652 123.929 182.92 126.105 176.344" stroke="#000000" stroke-width="0.249245" stroke-linecap="butt" stroke-linejoin="round" stroke-miterlimit="10" stroke-opacity="1" fill="none" fill-rule="evenodd" transform="matrix(1.0014 0 0 1 229.169 88.3233)"/><path d="M352.43 202.711C352.09 237.123 298.698 264.875 233.175 264.697 173.108 264.533 122.752 240.816 115.921 209.473" stroke="#000000" stroke-width="0.249245" stroke-linecap="butt" stroke-linejoin="round" stroke-miterlimit="10" stroke-opacity="1" fill="none" fill-rule="evenodd" transform="matrix(1.0014 0 0 1 229.169 88.3233)"/><path d="M13.323 5.06791C24.6445-8.12374 37.9007 5.24874 42.9314 34.9361 47.9622 64.6236 42.8624 99.3839 31.5409 112.576 26.6022 118.33 21.0372 119.216 15.8692 115.07" stroke="#000000" stroke-width="0.249245" stroke-linecap="butt" stroke-linejoin="round" stroke-miterlimit="10" stroke-opacity="1" fill="none" fill-rule="evenodd" transform="matrix(-1.83954e-16 -1 -1.0014 1.83697e-16 523.19 302.175)"/><path d="M27.5364 0.887856C40.2755 6.43829 48.7636 36.2062 46.4952 67.3763 44.8284 90.2797 37.6698 108.447 28.3764 113.359" stroke="#000000" stroke-width="0.249245" stroke-linecap="butt" stroke-linejoin="round" stroke-miterlimit="10" stroke-opacity="1" fill="none" fill-rule="evenodd" transform="matrix(-1.83954e-16 -1 -1.0014 1.83697e-16 520.195 312.145)"/><path d="M34.2414 4.95817C46.5944 18.0126 52.214 52.7109 46.7931 82.4589 44.3436 95.9005 39.8957 106.651 34.3231 112.599" stroke="#000000" stroke-width="0.249245" stroke-linecap="butt" stroke-linejoin="round" stroke-miterlimit="10" stroke-opacity="1" fill="none" fill-rule="evenodd" transform="matrix(-1.83954e-16 -1 -1.0014 1.83697e-16 523.19 321.118)"/><path d="M289.823 197.462C256.105 223.087 209.489 222.606 176.824 196.297" stroke="#000000" stroke-width="1.49547" stroke-linecap="butt" stroke-linejoin="round" stroke-miterlimit="10" stroke-opacity="1" fill="none" fill-rule="evenodd" transform="matrix(1.0014 0 0 1 229.169 88.3233)"/><path d="M166.516 263.202C166.207 261.691 165.897 260.179 165.588 257.911 165.279 255.643 164.073 252.147 164.661 249.597 165.248 247.045 166.455 244.589 169.115 242.604 171.773 240.62 176.599 238.226 180.62 237.691 184.639 237.155 190.268 237.88 193.237 239.392 196.206 240.903 196.547 244.935 198.434 246.761 200.32 248.589 201.557 249.47 204.557 250.352 207.557 251.234 212.289 252.053 216.433 252.053 220.578 252.053 225.186 251.612 229.423 250.352 233.66 249.092 237.866 247.076 241.856 244.494 245.845 241.911 251.134 237.974 253.361 234.856 255.587 231.738 255.186 228.4 255.217 225.785 255.248 223.171 254.288 221.029 253.547 219.171 252.804 217.312 251.907 215.298 250.763 214.636 249.619 213.975 248.149 214.589 246.68 215.203" stroke="#E0A3A3" stroke-width="2.2432" stroke-linecap="butt" stroke-linejoin="round" stroke-miterlimit="10" stroke-opacity="1" fill="none" fill-rule="evenodd" transform="matrix(1.0014 0 0 1 229.169 88.3233)"/><path d="M250.242 261.029C250.242 260.956 250.242 260.92 249.933 260.633 247.801 258.367 247.251 254.987 247.251 252.218 247.251 249.125 247.904 245.996 250.001 243.766 250.242 243.551 250.242 243.515 250.242 243.442 250.242 243.335 250.173 243.263 250.07 243.263 249.898 243.263 248.35 244.485 247.32 246.751 246.46 248.729 246.254 250.743 246.254 252.218 246.254 253.62 246.46 255.814 247.388 257.828 248.419 260.022 249.898 261.208 250.07 261.208 250.173 261.208 250.242 261.137 250.242 261.029" fill="#000000" fill-rule="evenodd" fill-opacity="1" transform="matrix(1.0014 0 0 1 229.169 88.3233)"/><path d="M260.211 249.551C260.211 249.449 260.147 249.245 259.922 249.245 259.922 249.245 258.957 249.483 258.475 249.96 258.249 249.687 257.703 249.245 256.77 249.245 253.972 249.245 252.236 251.902 252.236 254.252 252.236 256.329 253.715 257.044 255.033 257.044 255.806 257.044 256.449 256.738 256.803 256.499L256.192 259.088C256.127 259.326 256.095 259.36 255.998 259.36 255.806 259.394 255.549 259.394 255.387 259.394 255.098 259.394 255.001 259.394 254.937 259.497 254.841 259.598 254.809 259.871 254.809 259.905 254.809 260.007 254.873 260.211 255.13 260.211 255.677 260.211 256.255 260.144 256.835 260.144 257.414 260.144 258.024 260.211 258.603 260.211 258.7 260.211 259.021 260.211 259.021 259.701 259.021 259.428 258.732 259.394 258.603 259.394 258.378 259.394 258.121 259.394 257.896 259.394L260.211 249.551ZM257.124 255.103C257.06 255.375 257.06 255.409 256.867 255.58 256.352 256.125 255.677 256.431 255.13 256.431 254.133 256.431 254.036 255.512 254.036 255.137 254.036 254.252 254.584 252.174 254.841 251.527 255.355 250.267 256.127 249.858 256.803 249.858 257.735 249.858 258.121 250.641 258.121 250.846 258.121 250.914 258.089 251.015 258.089 251.084L257.124 255.103" fill="#000000" fill-rule="evenodd" fill-opacity="1" transform="matrix(1.0014 0 0 1 229.169 88.3233)"/><path d="M264.199 257C264.199 255.896 263.787 255.227 263.1 255.227 262.549 255.227 262.205 255.661 262.205 256.13 262.205 256.565 262.549 257 263.1 257 263.305 257 263.546 256.932 263.718 256.799 263.753 256.766 263.787 256.732 263.787 256.732 263.822 256.732 263.822 256.766 263.822 257 263.822 258.205 263.236 259.208 262.652 259.777 262.481 259.944 262.481 259.977 262.481 260.044 262.481 260.145 262.549 260.211 262.652 260.211 262.825 260.211 264.199 258.94 264.199 257" fill="#000000" fill-rule="evenodd" fill-opacity="1" transform="matrix(1.0014 0 0 1 229.169 88.3233)"/><path d="M275.166 246.254C275.166 245.717 274.752 245.257 274.188 245.257 273.548 245.257 273.172 245.755 273.172 246.254 273.172 246.752 273.586 247.251 274.15 247.251 274.79 247.251 275.166 246.714 275.166 246.254" fill="#000000" fill-rule="evenodd" fill-opacity="1" transform="matrix(1.0014 0 0 1 229.169 88.3233)"/><path d="M277.16 249.551C277.16 249.449 277.087 249.245 276.834 249.245 276.834 249.245 275.785 249.483 275.206 249.96 274.953 249.687 274.338 249.245 273.289 249.245 270.141 249.245 268.187 251.902 268.187 254.252 268.187 256.329 269.851 257.044 271.335 257.044 272.203 257.044 272.927 256.738 273.325 256.499L272.638 259.088C272.565 259.326 272.529 259.36 272.421 259.36 272.203 259.394 271.914 259.394 271.733 259.394 271.408 259.394 271.299 259.394 271.226 259.497 271.118 259.598 271.082 259.871 271.082 259.905 271.082 260.007 271.154 260.211 271.443 260.211 272.059 260.211 272.71 260.144 273.362 260.144 274.013 260.144 274.7 260.211 275.351 260.211 275.496 260.211 275.821 260.211 275.821 259.701 275.821 259.428 275.532 259.394 275.351 259.394 275.097 259.394 274.808 259.394 274.591 259.394L277.16 249.551ZM273.687 255.103C273.615 255.375 273.615 255.409 273.398 255.58 272.818 256.125 272.059 256.431 271.443 256.431 270.322 256.431 270.213 255.512 270.213 255.137 270.213 254.252 270.828 252.174 271.118 251.527 271.697 250.267 272.565 249.858 273.325 249.858 274.375 249.858 274.808 250.641 274.808 250.846 274.808 250.914 274.808 251.015 274.772 251.084L273.687 255.103" fill="#000000" fill-rule="evenodd" fill-opacity="1" transform="matrix(1.0014 0 0 1 229.169 88.3233)"/><path d="M282.145 252.218C282.145 250.851 281.972 248.658 281 246.644 279.961 244.449 278.504 243.263 278.331 243.263 278.227 243.263 278.157 243.335 278.157 243.442 278.157 243.515 278.157 243.551 278.469 243.874 280.168 245.637 281.139 248.477 281.139 252.218 281.139 255.31 280.515 258.439 278.365 260.705 278.157 260.92 278.157 260.956 278.157 261.029 278.157 261.137 278.227 261.208 278.331 261.208 278.504 261.208 280.029 259.986 281.07 257.684 281.937 255.742 282.145 253.728 282.145 252.218" fill="#000000" fill-rule="evenodd" fill-opacity="1" transform="matrix(1.0014 0 0 1 229.169 88.3233)"/><path d="M166.409 138.793C169.524 137.661 172.477 134.339 172.477 130.678 172.477 127.658 170.333 125.619 167.339 125.619 162.97 125.619 158.52 129.884 158.52 134.301 158.52 137.397 160.785 139.322 163.698 139.322 164.224 139.322 164.912 139.246 165.681 139.02 165.599 140.19 165.599 140.228 165.599 140.492 165.599 141.095 165.599 142.568 167.299 142.568 169.686 142.568 170.657 139.096 170.657 138.906 170.657 138.756 170.495 138.718 170.414 138.718 170.252 138.718 170.212 138.793 170.171 138.906 169.686 140.265 168.553 140.719 167.824 140.719 166.894 140.719 166.611 140.228 166.409 138.793ZM162.565 138.642C160.987 138.039 160.3 136.566 160.3 134.905 160.3 133.584 160.826 130.904 162.363 128.865 163.86 126.94 165.762 126.072 167.218 126.072 169.241 126.072 170.697 127.545 170.697 130.074 170.697 131.961 169.686 136.378 166.287 138.151 166.206 137.472 166.004 136.114 164.507 136.114 163.456 136.114 162.444 137.057 162.444 138.039 162.444 138.416 162.565 138.605 162.565 138.642ZM163.82 138.831C163.536 138.831 162.889 138.831 162.889 138.039 162.889 137.283 163.658 136.528 164.507 136.528 165.357 136.528 165.762 136.981 165.762 138.113 165.762 138.416 165.721 138.416 165.518 138.491 164.993 138.718 164.386 138.831 163.82 138.831" fill="#000000" fill-rule="evenodd" fill-opacity="1" transform="matrix(1.0014 0 0 1 229.169 88.3233)"/><path d="M242.266 242.266C242.266 240.614 243.605 239.275 245.257 239.275 246.909 239.275 248.248 240.614 248.248 242.266 248.248 243.918 246.909 245.257 245.257 245.257 243.605 245.257 242.266 243.918 242.266 242.266Z" fill="#000000" fill-rule="evenodd" fill-opacity="1" transform="matrix(1.0014 0 0 1 229.169 88.3233)"/><path d="M433.508 263.829 543.159 204.112 495.726 319.608Z" fill="#54C4E8" fill-rule="evenodd" fill-opacity="1" transform="matrix(1.0014 0 0 1 229.169 88.3233)"/><path d="M521.42 199.894C521.42 163.829 562.039 134.592 612.145 134.592 662.251 134.592 702.87 163.829 702.87 199.894 702.87 235.96 662.251 265.196 612.145 265.196 562.039 265.196 521.42 235.96 521.42 199.894Z" stroke="#000000" stroke-width="1.49547" stroke-linecap="butt" stroke-linejoin="round" stroke-miterlimit="10" stroke-opacity="1" fill="#FFFFFF" fill-rule="evenodd" fill-opacity="1" transform="matrix(1.0014 0 0 1 229.169 88.3233)"/><path d="M638.878 138.107C657.124 171.646 656.969 222.768 638.501 262.997" stroke="#000000" stroke-width="0.249245" stroke-linecap="butt" stroke-linejoin="round" stroke-miterlimit="10" stroke-opacity="1" fill="none" fill-rule="evenodd" transform="matrix(1.0014 0 0 1 229.169 88.3233)"/><path d="M112.197 28.777C134.074 61.5087 139.123 113.312 124.483 154.826" stroke="#000000" stroke-width="0.249248" stroke-linecap="butt" stroke-linejoin="round" stroke-miterlimit="10" stroke-opacity="1" fill="none" fill-rule="evenodd" transform="matrix(-0.996591 0.0977426 0.0978793 0.995198 925.885 185.484)"/><path d="M196.456 44.2675C220.224 76.8438 222.731 119.65 202.92 154.609" stroke="#000000" stroke-width="0.249246" stroke-linecap="butt" stroke-linejoin="round" stroke-miterlimit="10" stroke-opacity="1" fill="none" fill-rule="evenodd" transform="matrix(-0.999615 0.0595944 0.0596778 0.998218 988.7 176.719)"/><path d="M130.685 50.6809C145.443 84.077 154.144 130.017 154.92 178.627" stroke="#000000" stroke-width="0.249255" stroke-linecap="butt" stroke-linejoin="round" stroke-miterlimit="10" stroke-opacity="1" fill="none" fill-rule="evenodd" transform="matrix(-0.986691 0.170526 0.170765 0.985312 966.536 150.639)"/><path d="M202.62 38.7301C225.468 65.3585 229.043 99.8998 211.991 129.261" stroke="#000000" stroke-width="0.249246" stroke-linecap="butt" stroke-linejoin="round" stroke-miterlimit="10" stroke-opacity="1" fill="none" fill-rule="evenodd" transform="matrix(-0.999615 0.0595944 0.0596778 0.998218 980.571 190.379)"/><path d="M658.591 144.643C682.24 178.414 682.752 221.648 659.906 255.502" stroke="#000000" stroke-width="0.249245" stroke-linecap="butt" stroke-linejoin="round" stroke-miterlimit="10" stroke-opacity="1" fill="none" fill-rule="evenodd" transform="matrix(1.0014 0 0 1 229.169 88.3233)"/><path d="M675.933 153.494C696.77 180.932 698.628 214.922 680.825 242.984" stroke="#000000" stroke-width="0.249245" stroke-linecap="butt" stroke-linejoin="round" stroke-miterlimit="10" stroke-opacity="1" fill="none" fill-rule="evenodd" transform="matrix(1.0014 0 0 1 229.169 88.3233)"/><path d="M695.434 172.793C669.462 186.833 609.557 192.046 561.63 184.438 547.943 182.266 536.204 179.175 527.373 175.419" stroke="#000000" stroke-width="0.249245" stroke-linecap="butt" stroke-linejoin="round" stroke-miterlimit="10" stroke-opacity="1" fill="none" fill-rule="evenodd" transform="matrix(1.0014 0 0 1 229.169 88.3233)"/><path d="M703.272 203.707C664.113 216.167 590.898 218.536 539.744 208.997 533.648 207.86 528.027 206.579 522.964 205.173" stroke="#000000" stroke-width="0.249245" stroke-linecap="butt" stroke-linejoin="round" stroke-miterlimit="10" stroke-opacity="1" fill="none" fill-rule="evenodd" transform="matrix(1.0014 0 0 1 229.169 88.3233)"/><path d="M695.029 227.104C668.649 240.837 608.593 245.813 560.89 238.218 550.164 236.511 540.636 234.243 532.794 231.531" stroke="#000000" stroke-width="0.249245" stroke-linecap="butt" stroke-linejoin="round" stroke-miterlimit="10" stroke-opacity="1" fill="none" fill-rule="evenodd" transform="matrix(1.0014 0 0 1 229.169 88.3233)"/><path d="M668.342 149.371C650.795 159.278 610.518 162.924 578.379 157.516 568.351 155.828 559.907 153.369 553.868 150.379" stroke="#000000" stroke-width="0.249245" stroke-linecap="butt" stroke-linejoin="round" stroke-miterlimit="10" stroke-opacity="1" fill="none" fill-rule="evenodd" transform="matrix(1.0014 0 0 1 229.169 88.3233)"/><path d="M655.52 142.244C651.95 140.459 648.382 138.674 645.56 138.587 642.738 138.5 640.332 139.196 638.589 141.722 636.846 144.247 635.352 147.382 635.103 153.738 634.854 160.095 636.348 169.064 637.095 179.862 637.842 190.659 637.51 206.072 639.585 218.524 641.66 230.976 645.976 248.478 649.544 254.574 653.113 260.669 657.055 257.883 660.997 255.096" stroke="#54C4E8" stroke-width="2.2432" stroke-linecap="butt" stroke-linejoin="round" stroke-miterlimit="10" stroke-opacity="1" fill="none" fill-rule="evenodd" transform="matrix(1.0014 0 0 1 229.169 88.3233)"/><path d="M584.23 211.19C584.23 211.122 584.23 211.088 583.997 210.817 582.399 208.682 581.986 205.461 581.986 202.885 581.986 199.936 582.476 196.987 584.049 194.885 584.23 194.682 584.23 194.648 584.23 194.58 584.23 194.479 584.178 194.411 584.101 194.411 583.971 194.411 582.812 195.563 582.038 197.733 581.393 199.597 581.239 201.462 581.239 202.885 581.239 204.207 581.393 206.241 582.089 208.173 582.863 210.241 583.971 211.36 584.101 211.36 584.178 211.36 584.23 211.292 584.23 211.19" fill="#000000" fill-rule="evenodd" fill-opacity="1" transform="matrix(1.0014 0 0 1 229.169 88.3233)"/><path d="M600.291 196.315C600.648 196.245 601.2 196.245 601.396 196.245 601.59 196.245 601.915 196.245 601.981 196.176 602.142 196.071 602.175 195.757 602.175 195.722 602.175 195.513 602.013 195.408 601.818 195.408 601.396 195.408 600.973 195.443 600.583 195.443 600.161 195.443 599.772 195.478 599.382 195.478 598.959 195.478 598.536 195.443 598.115 195.443 597.692 195.443 597.269 195.408 596.847 195.408 596.685 195.408 596.36 195.408 596.36 195.931 596.36 196.245 596.587 196.245 597.042 196.245 597.4 196.245 597.692 196.245 598.05 196.28L597.01 200.745 591.714 200.745 592.721 196.315C593.079 196.245 593.663 196.245 593.826 196.245 594.053 196.245 594.378 196.245 594.443 196.176 594.605 196.071 594.605 195.757 594.605 195.722 594.605 195.513 594.443 195.408 594.248 195.408 593.858 195.408 593.436 195.443 593.014 195.443 592.624 195.443 592.234 195.478 591.812 195.478 591.389 195.478 590.967 195.443 590.577 195.443 590.155 195.443 589.7 195.408 589.277 195.408 589.148 195.408 588.823 195.408 588.823 195.931 588.823 196.245 589.017 196.245 589.505 196.245 589.83 196.245 590.155 196.245 590.48 196.28L588.173 206.186C588.108 206.464 588.075 206.499 587.783 206.534 587.523 206.534 587.199 206.534 586.938 206.534 586.516 206.534 586.484 206.534 586.418 206.569 586.224 206.709 586.224 206.988 586.224 207.058 586.224 207.058 586.224 207.372 586.58 207.372 586.971 207.372 587.393 207.337 587.816 207.337 588.206 207.337 588.627 207.302 589.05 207.302 589.473 207.302 589.894 207.337 590.284 207.337 590.707 207.337 591.162 207.372 591.551 207.372 591.714 207.372 591.844 207.372 591.941 207.232 592.006 207.127 592.039 206.883 592.039 206.848 592.039 206.534 591.812 206.534 591.357 206.534 591.032 206.534 590.707 206.534 590.382 206.499L591.52 201.581 596.814 201.581 595.71 206.186C595.645 206.464 595.645 206.499 595.353 206.534 595.061 206.534 594.736 206.534 594.476 206.534 594.053 206.534 594.021 206.534 593.956 206.569 593.761 206.709 593.761 206.988 593.761 207.058 593.761 207.058 593.761 207.372 594.119 207.372 594.54 207.372 594.963 207.337 595.353 207.337 595.775 207.337 596.197 207.302 596.587 207.302 597.01 207.302 597.432 207.337 597.854 207.337 598.277 207.337 598.699 207.372 599.122 207.372 599.284 207.372 599.414 207.372 599.478 207.232 599.543 207.127 599.576 206.883 599.576 206.848 599.576 206.534 599.349 206.534 598.926 206.534 598.569 206.534 598.277 206.534 597.919 206.499L600.291 196.315" fill="#000000" fill-rule="evenodd" fill-opacity="1" transform="matrix(1.0014 0 0 1 229.169 88.3233)"/><path d="M605.166 207.117C605.166 206.014 604.96 205.378 604.616 205.378 604.341 205.378 604.169 205.779 604.169 206.247 604.169 206.716 604.341 207.151 604.616 207.151 604.72 207.151 604.839 207.083 604.926 206.917 604.943 206.883 604.96 206.883 604.96 206.883 604.977 206.883 604.977 206.883 604.977 207.117 604.977 208.356 604.685 209.359 604.393 209.928 604.307 210.095 604.307 210.128 604.307 210.195 604.307 210.296 604.341 210.363 604.393 210.363 604.478 210.363 605.166 209.091 605.166 207.117" fill="#000000" fill-rule="evenodd" fill-opacity="1" transform="matrix(1.0014 0 0 1 229.169 88.3233)"/><path d="M620.121 192.436C620.121 191.909 619.707 191.42 619.143 191.42 618.503 191.42 618.127 191.946 618.127 192.436 618.127 192.924 618.541 193.414 619.105 193.414 619.745 193.414 620.121 192.887 620.121 192.436" fill="#000000" fill-rule="evenodd" fill-opacity="1" transform="matrix(1.0014 0 0 1 229.169 88.3233)"/><path d="M624.218 196.315C624.575 196.245 625.161 196.245 625.323 196.245 625.518 196.245 625.843 196.245 625.908 196.176 626.07 196.071 626.103 195.757 626.103 195.722 626.103 195.513 625.94 195.408 625.746 195.408 625.323 195.408 624.933 195.443 624.511 195.443 624.121 195.443 623.699 195.478 623.309 195.478 622.886 195.478 622.464 195.443 622.042 195.443 621.619 195.443 621.197 195.408 620.775 195.408 620.612 195.408 620.287 195.408 620.287 195.931 620.287 196.245 620.515 196.245 620.969 196.245 621.327 196.245 621.619 196.245 621.977 196.28L620.937 200.745 615.641 200.745 616.681 196.315C617.038 196.245 617.591 196.245 617.753 196.245 617.98 196.245 618.305 196.245 618.37 196.176 618.533 196.071 618.533 195.757 618.533 195.722 618.533 195.513 618.37 195.408 618.176 195.408 617.786 195.408 617.363 195.443 616.973 195.443 616.552 195.443 616.162 195.478 615.739 195.478 615.316 195.478 614.895 195.443 614.505 195.443 614.082 195.443 613.628 195.408 613.205 195.408 613.075 195.408 612.75 195.408 612.75 195.931 612.75 196.245 612.945 196.245 613.432 196.245 613.757 196.245 614.082 196.245 614.407 196.28L612.1 206.186C612.035 206.464 612.002 206.499 611.71 206.534 611.45 206.534 611.126 206.534 610.866 206.534 610.443 206.534 610.411 206.534 610.346 206.569 610.151 206.709 610.151 206.988 610.151 207.058 610.151 207.058 610.151 207.372 610.508 207.372 610.899 207.372 611.32 207.337 611.743 207.337 612.133 207.337 612.555 207.302 612.978 207.302 613.4 207.302 613.822 207.337 614.212 207.337 614.635 207.337 615.089 207.372 615.479 207.372 615.641 207.372 615.771 207.372 615.869 207.232 615.934 207.127 615.966 206.883 615.966 206.848 615.966 206.534 615.739 206.534 615.284 206.534 614.959 206.534 614.635 206.534 614.31 206.499L615.447 201.581 620.742 201.581 619.637 206.186C619.573 206.464 619.573 206.499 619.28 206.534 618.988 206.534 618.663 206.534 618.403 206.534 617.98 206.534 617.948 206.534 617.884 206.569 617.688 206.709 617.688 206.988 617.688 207.058 617.688 207.058 617.688 207.372 618.046 207.372 618.468 207.372 618.891 207.337 619.28 207.337 619.702 207.337 620.125 207.302 620.515 207.302 620.937 207.302 621.359 207.337 621.782 207.337 622.205 207.337 622.626 207.372 623.049 207.372 623.211 207.372 623.341 207.372 623.406 207.232 623.471 207.127 623.504 206.883 623.504 206.848 623.504 206.534 623.276 206.534 622.854 206.534 622.497 206.534 622.205 206.534 621.847 206.499L624.218 196.315" fill="#000000" fill-rule="evenodd" fill-opacity="1" transform="matrix(1.0014 0 0 1 229.169 88.3233)"/><path d="M631.088 202.885C631.088 201.563 630.914 199.529 629.978 197.597 628.938 195.529 627.447 194.411 627.273 194.411 627.169 194.411 627.1 194.479 627.1 194.58 627.1 194.648 627.1 194.682 627.412 194.987 629.111 196.648 630.117 199.36 630.117 202.885 630.117 205.766 629.458 208.749 627.308 210.885 627.1 211.088 627.1 211.122 627.1 211.19 627.1 211.292 627.169 211.36 627.273 211.36 627.447 211.36 629.007 210.207 630.013 208.038 630.879 206.173 631.088 204.309 631.088 202.885" fill="#000000" fill-rule="evenodd" fill-opacity="1" transform="matrix(1.0014 0 0 1 229.169 88.3233)"/><path d="M535.378 124.802C535.378 124.73 535.348 124.622 535.196 124.622 535.135 124.622 535.104 124.622 534.923 124.873L534.195 125.876C533.801 125.052 533.013 124.622 532.043 124.622 530.134 124.622 528.315 126.663 528.315 128.812 528.315 130.279 529.103 131.103 529.891 131.353L531.497 131.854C532.043 131.998 532.892 132.284 532.892 133.752 532.892 135.363 531.649 137.046 530.163 137.046 529.193 137.046 527.526 136.652 527.526 134.433 527.526 134.003 527.587 133.573 527.617 133.466 527.617 133.394 527.648 133.358 527.648 133.323 527.648 133.144 527.526 133.144 527.466 133.144 527.375 133.144 527.345 133.144 527.314 133.215 527.253 133.287 526.405 137.369 526.405 137.404 526.405 137.511 526.466 137.583 526.556 137.583 526.647 137.583 526.647 137.583 526.83 137.333L527.587 136.294C528.223 137.333 529.254 137.583 530.134 137.583 532.194 137.583 533.983 135.22 533.983 133 533.983 131.783 533.467 131.175 533.225 130.923 532.892 130.494 532.649 130.423 531.316 130.029 530.982 129.921 530.437 129.742 530.315 129.706 529.891 129.527 529.376 129.026 529.376 128.06 529.376 126.627 530.588 125.124 532.013 125.124 533.286 125.124 534.195 125.876 534.195 127.88 534.195 128.454 534.134 128.776 534.134 128.882 534.134 128.882 534.134 129.062 534.317 129.062 534.468 129.062 534.498 128.99 534.559 128.704L535.378 124.802" fill="#000000" fill-rule="evenodd" fill-opacity="1" transform="matrix(1.0014 0 0 1 229.169 88.3233)"/><path d="M547.385 133.489C547.418 133.384 547.451 133.277 547.451 133.242 547.451 133.207 547.451 133.031 547.254 133.031 547.122 133.031 547.089 133.137 547.056 133.242 545.972 135.853 545.38 137.054 542.554 137.054L540.187 137.054C539.957 137.054 539.924 137.054 539.826 137.019 539.662 137.019 539.596 136.983 539.596 136.842 539.596 136.806 539.596 136.772 539.695 136.454L540.812 131.654 542.422 131.654C543.803 131.654 543.803 132.007 543.803 132.431 543.803 132.571 543.803 132.784 543.704 133.313 543.672 133.384 543.639 133.454 543.639 133.489 543.639 133.595 543.704 133.701 543.868 133.701 544 133.701 544.032 133.595 544.098 133.348L545.051 129.219C545.051 129.113 544.953 129.043 544.854 129.043 544.69 129.043 544.658 129.149 544.625 129.36 544.263 130.701 543.967 131.09 542.455 131.09L540.943 131.09 541.929 126.855C542.06 126.22 542.093 126.149 542.784 126.149L545.117 126.149C547.122 126.149 547.616 126.678 547.616 128.125 547.616 128.548 547.616 128.583 547.55 129.043 547.55 129.149 547.517 129.289 547.517 129.36 547.517 129.466 547.583 129.572 547.714 129.572 547.911 129.572 547.911 129.466 547.944 129.149L548.273 126.078C548.338 125.619 548.24 125.619 547.845 125.619L539.563 125.619C539.234 125.619 539.069 125.619 539.069 125.972 539.069 126.149 539.201 126.149 539.53 126.149 540.121 126.149 540.582 126.149 540.582 126.467 540.582 126.537 540.582 126.572 540.516 126.889L538.347 136.206C538.182 136.912 538.149 137.054 536.835 137.054 536.572 137.054 536.375 137.054 536.375 137.372 536.375 137.583 536.539 137.583 536.835 137.583L545.347 137.583C545.742 137.583 545.742 137.583 545.873 137.301L547.385 133.489" fill="#000000" fill-rule="evenodd" fill-opacity="1" transform="matrix(1.0014 0 0 1 229.169 88.3233)"/><path d="M553.323 141.392C553.323 141.319 553.323 141.283 553.091 140.996 551.493 138.73 551.08 135.35 551.08 132.58 551.08 129.488 551.57 126.358 553.143 124.129 553.323 123.914 553.323 123.878 553.323 123.805 553.323 123.697 553.271 123.625 553.195 123.625 553.065 123.625 551.906 124.848 551.158 127.114 550.487 129.092 550.332 131.106 550.332 132.58 550.332 133.983 550.487 136.176 551.183 138.19 551.956 140.385 553.065 141.571 553.195 141.571 553.271 141.571 553.323 141.499 553.323 141.392" fill="#000000" fill-rule="evenodd" fill-opacity="1" transform="matrix(1.0014 0 0 1 229.169 88.3233)"/><path d="M558.871 131.096C560.057 130.607 560.894 129.386 560.894 128.026 560.894 126.596 559.623 125.619 558.236 125.619 556.791 125.619 555.693 126.666 555.693 127.991 555.693 128.549 556.011 128.898 556.444 128.898 556.878 128.898 557.167 128.515 557.167 127.991 557.167 127.119 556.502 127.119 556.271 127.119 556.704 126.282 557.658 126.038 558.179 126.038 558.785 126.038 559.565 126.422 559.565 127.991 559.565 128.201 559.536 129.212 559.161 129.979 558.727 130.817 558.236 130.886 557.889 130.886 557.774 130.921 557.427 130.956 557.311 130.956 557.195 130.956 557.109 130.991 557.109 131.166 557.109 131.34 557.195 131.34 557.456 131.34L558.092 131.34C559.276 131.34 559.797 132.525 559.797 134.234 559.797 136.606 558.814 137.095 558.179 137.095 557.542 137.095 556.473 136.815 555.982 135.77 556.473 135.874 556.906 135.49 556.906 134.827 556.906 134.199 556.531 133.851 556.127 133.851 555.78 133.851 555.317 134.095 555.317 134.862 555.317 136.432 556.646 137.583 558.207 137.583 559.97 137.583 561.299 136.014 561.299 134.234 561.299 132.805 560.374 131.445 558.871 131.096" fill="#000000" fill-rule="evenodd" fill-opacity="1" transform="matrix(1.0014 0 0 1 229.169 88.3233)"/><path d="M567.281 132.58C567.281 131.213 567.109 129.02 566.146 127.006 565.116 124.812 563.637 123.625 563.465 123.625 563.362 123.625 563.293 123.697 563.293 123.805 563.293 123.878 563.293 123.914 563.637 124.237 565.321 125.999 566.284 128.84 566.284 132.58 566.284 135.673 565.665 138.801 563.533 141.068 563.293 141.283 563.293 141.319 563.293 141.392 563.293 141.499 563.362 141.571 563.465 141.571 563.637 141.571 565.184 140.349 566.215 138.047 567.075 136.105 567.281 134.091 567.281 132.58" fill="#000000" fill-rule="evenodd" fill-opacity="1" transform="matrix(1.0014 0 0 1 229.169 88.3233)"/><path d="M635.076 199.894C635.076 198.517 636.191 197.402 637.568 197.402 638.945 197.402 640.06 198.517 640.06 199.894 640.06 201.271 638.945 202.387 637.568 202.387 636.191 202.387 635.076 201.271 635.076 199.894Z" fill="#000000" fill-rule="evenodd" fill-opacity="1" transform="matrix(1.0014 0 0 1 229.169 88.3233)"/><path d="M356.918 269.739C354.17 255.081 364.932 247.206 380.514 246.254 392.252 245.06 410.25 245.816 429.591 246.254 448.933 246.691 460.889 245.787 474.894 246.254 485.511 244.939 499.848 257.415 498.489 269.739 500.068 285.476 496.834 300.487 498.489 311.564 500.144 322.639 496.67 342.66 498.489 358.728 500.309 374.795 500.435 381.838 498.489 403.222 497.887 417.183 486.643 425.227 474.894 426.707 465.214 426.816 449.729 428.337 429.591 426.707 409.454 425.077 401.72 428.135 380.514 426.707 369.638 424.587 357.561 415.78 356.918 403.222 355.327 391.925 356.129 373.498 356.918 358.728 357.708 343.957 357.376 336.161 356.918 316.903 356.461 297.645 355.06 279.889 356.918 269.739Z" fill="#FFFFFF" fill-rule="evenodd" fill-opacity="1" transform="matrix(1.0014 0 0 1 229.169 88.3233)"/><path d="M356.918 269.739C356.429 255.776 367.58 244.941 380.514 246.254 393.495 245.374 418.845 245.037 428.648 246.254 438.45 247.47 459.917 245.925 474.894 246.254 489.819 245.136 496.8 259.44 498.489 269.739 497.947 286.239 499.804 302.498 498.489 312.899 497.174 323.298 496.874 336.872 498.489 357.393 500.105 377.913 498.751 382.543 498.489 403.222 498.664 415.659 488.177 426.977 474.894 426.707 450.959 425.253 447.433 425.599 425.817 426.707 404.199 427.815 395.856 424.731 380.514 426.707 370.224 426.109 357.2 416.423 356.918 403.222 355.053 391.163 355.057 375.003 356.918 356.058 358.78 337.113 356.487 329.028 356.918 310.229 357.35 291.429 358.881 286.475 356.918 269.739Z" stroke="#000000" stroke-width="1.99396" stroke-linecap="butt" stroke-linejoin="round" stroke-miterlimit="10" stroke-opacity="1" fill="none" fill-rule="evenodd" transform="matrix(1.0014 0 0 1 229.169 88.3233)"/><path d="M406.767 401.783 425.211 372.87 443.656 401.783Z" stroke="#000000" stroke-width="1.99396" stroke-linecap="butt" stroke-linejoin="round" stroke-miterlimit="10" stroke-opacity="1" fill="#FFFFFF" fill-rule="evenodd" fill-opacity="1" transform="matrix(1.0014 0 0 1 229.169 88.3233)"/><path d="M385.332 403.278 466.894 403.278" stroke="#000000" stroke-width="0.996979" stroke-linecap="butt" stroke-linejoin="round" stroke-miterlimit="10" stroke-opacity="1" fill="none" fill-rule="evenodd" transform="matrix(1.0014 0 0 1 229.169 88.3233)"/><path d="M415.74 376.858C415.74 371.902 419.757 367.885 424.713 367.885 429.669 367.885 433.686 371.902 433.686 376.858 433.686 381.814 429.669 385.831 424.713 385.831 419.757 385.831 415.74 381.814 415.74 376.858Z" stroke="#000000" stroke-width="2.2432" stroke-linecap="butt" stroke-linejoin="round" stroke-miterlimit="10" stroke-opacity="1" fill="#E0A3A3" fill-rule="evenodd" fill-opacity="1" transform="matrix(1.0014 0 0 1 229.169 88.3233)"/><path d="M445.65 331.495C445.65 326.264 449.89 322.024 455.121 322.024 460.352 322.024 464.592 326.264 464.592 331.495 464.592 336.727 460.352 340.967 455.121 340.967 449.89 340.967 445.65 336.727 445.65 331.495Z" stroke="#000000" stroke-width="2.2432" stroke-linecap="butt" stroke-linejoin="round" stroke-miterlimit="10" stroke-opacity="1" fill="#E0A3A3" fill-rule="evenodd" fill-opacity="1" transform="matrix(1.0014 0 0 1 229.169 88.3233)"/><path d="M384.834 310.559C384.834 305.328 388.851 301.088 393.807 301.088 398.763 301.088 402.779 305.328 402.779 310.559 402.779 315.79 398.763 320.03 393.807 320.03 388.851 320.03 384.834 315.79 384.834 310.559Z" stroke="#000000" stroke-width="2.2432" stroke-linecap="butt" stroke-linejoin="round" stroke-miterlimit="10" stroke-opacity="1" fill="#54C4E8" fill-rule="evenodd" fill-opacity="1" transform="matrix(1.0014 0 0 1 229.169 88.3233)"/><path d="M0 0 16.8743 24.2262" stroke="#000000" stroke-width="2.99094" stroke-linecap="butt" stroke-linejoin="round" stroke-miterlimit="10" stroke-opacity="1" fill="#FFFFFF" fill-rule="evenodd" fill-opacity="1" transform="matrix(1.0014 0 0 -1 661.964 455.012)"/><path d="M406.269 315.544 444.789 328.417" stroke="#000000" stroke-width="2.99094" stroke-linecap="butt" stroke-linejoin="round" stroke-miterlimit="10" stroke-opacity="1" fill="#FFFFFF" fill-rule="evenodd" fill-opacity="1" transform="matrix(1.0014 0 0 1 229.169 88.3233)"/><path d="M0 0 5.65279 5.65279" stroke="#000000" stroke-width="0.996979" stroke-linecap="butt" stroke-linejoin="round" stroke-miterlimit="10" stroke-opacity="1" fill="none" fill-rule="evenodd" transform="matrix(1.0014 0 0 -1 615.041 497.254)"/><path d="M0 0 5.65279 5.65279" stroke="#000000" stroke-width="0.996979" stroke-linecap="butt" stroke-linejoin="round" stroke-miterlimit="10" stroke-opacity="1" fill="none" fill-rule="evenodd" transform="matrix(1.0014 0 0 -1 620.033 497.254)"/><path d="M0 0 5.65279 5.65279" stroke="#000000" stroke-width="0.996979" stroke-linecap="butt" stroke-linejoin="round" stroke-miterlimit="10" stroke-opacity="1" fill="none" fill-rule="evenodd" transform="matrix(1.0014 0 0 -1 625.024 497.254)"/><path d="M0 0 5.65279 5.65279" stroke="#000000" stroke-width="0.996979" stroke-linecap="butt" stroke-linejoin="round" stroke-miterlimit="10" stroke-opacity="1" fill="none" fill-rule="evenodd" transform="matrix(1.0014 0 0 -1 630.016 497.254)"/><path d="M0 0 5.65279 5.65279" stroke="#000000" stroke-width="0.996979" stroke-linecap="butt" stroke-linejoin="round" stroke-miterlimit="10" stroke-opacity="1" fill="none" fill-rule="evenodd" transform="matrix(1.0014 0 0 -1 634.01 497.254)"/><path d="M0 0 5.65279 5.65279" stroke="#000000" stroke-width="0.996979" stroke-linecap="butt" stroke-linejoin="round" stroke-miterlimit="10" stroke-opacity="1" fill="none" fill-rule="evenodd" transform="matrix(1.0014 0 0 -1 639.002 497.254)"/><path d="M0 0 5.65279 5.65279" stroke="#000000" stroke-width="0.996979" stroke-linecap="butt" stroke-linejoin="round" stroke-miterlimit="10" stroke-opacity="1" fill="none" fill-rule="evenodd" transform="matrix(1.0014 0 0 -1 642.995 497.254)"/><path d="M0 0 5.65279 5.65279" stroke="#000000" stroke-width="0.996979" stroke-linecap="butt" stroke-linejoin="round" stroke-miterlimit="10" stroke-opacity="1" fill="none" fill-rule="evenodd" transform="matrix(1.0014 0 0 -1 647.987 497.254)"/><path d="M0 0 5.65279 5.65279" stroke="#000000" stroke-width="0.996979" stroke-linecap="butt" stroke-linejoin="round" stroke-miterlimit="10" stroke-opacity="1" fill="none" fill-rule="evenodd" transform="matrix(1.0014 0 0 -1 652.979 497.254)"/><path d="M0 0 5.65279 5.65279" stroke="#000000" stroke-width="0.996979" stroke-linecap="butt" stroke-linejoin="round" stroke-miterlimit="10" stroke-opacity="1" fill="none" fill-rule="evenodd" transform="matrix(1.0014 0 0 -1 656.972 497.254)"/><path d="M0 0 5.65279 5.65279" stroke="#000000" stroke-width="0.996979" stroke-linecap="butt" stroke-linejoin="round" stroke-miterlimit="10" stroke-opacity="1" fill="none" fill-rule="evenodd" transform="matrix(1.0014 0 0 -1 661.964 497.254)"/><path d="M0 0 5.65279 5.65279" stroke="#000000" stroke-width="0.996979" stroke-linecap="butt" stroke-linejoin="round" stroke-miterlimit="10" stroke-opacity="1" fill="none" fill-rule="evenodd" transform="matrix(1.0014 0 0 -1 665.958 497.254)"/><path d="M0 0 5.65279 5.65279" stroke="#000000" stroke-width="0.996979" stroke-linecap="butt" stroke-linejoin="round" stroke-miterlimit="10" stroke-opacity="1" fill="none" fill-rule="evenodd" transform="matrix(1.0014 0 0 -1 670.95 497.254)"/><path d="M0 0 5.65279 5.65279" stroke="#000000" stroke-width="0.996979" stroke-linecap="butt" stroke-linejoin="round" stroke-miterlimit="10" stroke-opacity="1" fill="none" fill-rule="evenodd" transform="matrix(1.0014 0 0 -1 675.941 497.254)"/><path d="M0 0 5.65279 5.65279" stroke="#000000" stroke-width="0.996979" stroke-linecap="butt" stroke-linejoin="round" stroke-miterlimit="10" stroke-opacity="1" fill="none" fill-rule="evenodd" transform="matrix(1.0014 0 0 -1 679.935 497.254)"/><path d="M0 0 5.65279 5.65279" stroke="#000000" stroke-width="0.996979" stroke-linecap="butt" stroke-linejoin="round" stroke-miterlimit="10" stroke-opacity="1" fill="none" fill-rule="evenodd" transform="matrix(1.0014 0 0 -1 684.927 497.254)"/><path d="M0 0 5.65279 5.65279" stroke="#000000" stroke-width="0.996979" stroke-linecap="butt" stroke-linejoin="round" stroke-miterlimit="10" stroke-opacity="1" fill="none" fill-rule="evenodd" transform="matrix(1.0014 0 0 -1 689.919 497.254)"/><path d="M104.683 162.342C104.683 132.15 129.159 107.674 159.351 107.674L661.163 107.674C691.355 107.674 715.831 132.15 715.831 162.342L715.831 381.011C715.831 411.204 691.355 435.68 661.163 435.68L159.351 435.68C129.159 435.68 104.683 411.204 104.683 381.011Z" stroke="#000000" stroke-width="2.2432" stroke-linecap="butt" stroke-linejoin="round" stroke-miterlimit="10" stroke-opacity="1" fill="none" fill-rule="evenodd" transform="matrix(1.0014 0 0 1 229.169 88.3233)"/><path d="M0.747734-2.07681e-06 0.747809 26.7834-0.747659 26.7834-0.747734 2.07681e-06ZM4.13536 21.1783 7.85374e-05 28.2674-4.13525 21.1783C-4.34333 20.8216-4.22284 20.3638-3.86613 20.1557-3.50943 19.9477-3.05157 20.0681-2.84349 20.4248L0.645951 26.4067-0.645804 26.4067 2.8436 20.4248C3.05168 20.0681 3.50954 19.9477 3.86624 20.1557 4.22295 20.3638 4.34344 20.8216 4.13536 21.1783Z" fill="#404040" fill-rule="nonzero" fill-opacity="1" transform="matrix(1.0014 0 0 -1 653.478 467.524)"/><path d="M422.719 379.101 449.503 379.101 449.503 380.597 422.719 380.597ZM443.897 375.713 450.986 379.849 443.898 383.984C443.541 384.192 443.083 384.072 442.875 383.715 442.667 383.358 442.787 382.901 443.144 382.692L449.126 379.203 449.126 380.495 443.144 377.006C442.787 376.797 442.667 376.34 442.875 375.983 443.082 375.626 443.541 375.505 443.897 375.713Z" fill="#404040" fill-rule="nonzero" fill-opacity="1" transform="matrix(1.0014 0 0 1 229.169 88.3233)"/><text fill="#000000" fill-opacity="1" font-family="Cambria Math,Cambria Math_MSFontService,sans-serif" font-style="normal" font-variant="normal" font-weight="400" font-stretch="normal" font-size="18" text-anchor="start" direction="ltr" writing-mode="lr-tb" unicode-bidi="normal" text-decoration="none" transform="matrix(0.998374 0 0 0.996979 625.371 445)">{</text><text fill="#000000" fill-opacity="1" font-family="Cambria Math,Cambria Math_MSFontService,sans-serif" font-style="normal" font-variant="normal" font-weight="400" font-stretch="normal" font-size="18" text-anchor="start" direction="ltr" writing-mode="lr-tb" unicode-bidi="normal" text-decoration="none" transform="matrix(0.998374 0 0 0.996979 632.359 445)">𝑆</text><text fill="#000000" fill-opacity="1" font-family="Cambria Math,Cambria Math_MSFontService,sans-serif" font-style="normal" font-variant="normal" font-weight="400" font-stretch="normal" font-size="18" text-anchor="start" direction="ltr" writing-mode="lr-tb" unicode-bidi="normal" text-decoration="none" transform="matrix(0.998374 0 0 0.996979 642.193 445)">}</text><path d="M0.748201-2.0781e-06 0.748276 26.8002-0.748127 26.8002-0.748201 2.0781e-06ZM4.13794 21.1916 7.85865e-05 28.2851-4.13783 21.1916C-4.34604 20.8346-4.22548 20.3765-3.86855 20.1683-3.51162 19.9601-3.05348 20.0806-2.84527 20.4376L0.646354 26.4232-0.646208 26.4232 2.84538 20.4376C3.05359 20.0806 3.51173 19.9601 3.86866 20.1683 4.22559 20.3765 4.34615 20.8346 4.13794 21.1916Z" fill="#404040" fill-rule="nonzero" fill-opacity="1" transform="matrix(0.668792 -0.743449 -0.74449 -0.667858 621.812 399.758)"/><path d="M0.748201-2.0781e-06 0.748276 26.8001-0.748126 26.8001-0.748201 2.0781e-06ZM4.13794 21.1915 7.85864e-05 28.2851-4.13783 21.1915C-4.34604 20.8346-4.22548 20.3765-3.86855 20.1683-3.51162 19.9601-3.05348 20.0806-2.84527 20.4376L0.646354 26.4232-0.646207 26.4232 2.84538 20.4376C3.05359 20.0806 3.51172 19.9601 3.86866 20.1683 4.22559 20.3765 4.34615 20.8346 4.13794 21.1915Z" fill="#404040" fill-rule="nonzero" fill-opacity="1" transform="matrix(-0.74449 -0.667858 -0.668793 0.74345 622.63 399.42)"/><path d="M390.445 272.811 390.673 272.811C392.046 272.834 393.073 273.148 393.753 273.752 394.434 274.358 394.774 275.267 394.774 276.482 394.774 276.967 394.705 277.519 394.568 278.138 394.431 278.757 394.362 279.172 394.362 279.382 394.362 279.786 394.501 280.114 394.778 280.368 395.056 280.623 395.475 280.758 396.036 280.776L396.036 281.494C395.475 281.512 395.056 281.648 394.778 281.902 394.501 282.156 394.362 282.485 394.362 282.888 394.362 283.098 394.431 283.513 394.568 284.132 394.705 284.751 394.774 285.303 394.774 285.788 394.774 287.044 394.434 287.974 393.753 288.579 393.073 289.184 392.046 289.498 390.673 289.521L390.445 289.521 390.445 288.855 390.576 288.855C391.424 288.855 392.087 288.634 392.565 288.194 393.045 287.752 393.284 287.003 393.284 285.946 393.284 285.537 393.225 285.031 393.109 284.43 392.992 283.828 392.933 283.399 392.933 283.142 392.933 282.646 393.08 282.238 393.372 281.92 393.664 281.601 394.011 281.366 394.415 281.214L394.415 281.056C394.011 280.905 393.664 280.669 393.372 280.351 393.08 280.032 392.933 279.625 392.933 279.128 392.933 278.872 392.992 278.442 393.109 277.84 393.225 277.239 393.284 276.733 393.284 276.325 393.284 275.308 393.045 274.579 392.565 274.138 392.087 273.698 391.424 273.476 390.576 273.476L390.445 273.476ZM376.843 272.811 377.07 272.811 377.07 273.476 376.939 273.476C376.092 273.476 375.429 273.698 374.95 274.138 374.471 274.579 374.232 275.305 374.232 276.316 374.232 276.724 374.29 277.23 374.406 277.832 374.524 278.433 374.582 278.863 374.582 279.12 374.582 279.617 374.436 280.023 374.144 280.342 373.852 280.661 373.504 280.896 373.101 281.047L373.101 281.205C373.504 281.357 373.852 281.593 374.144 281.911 374.436 282.229 374.582 282.637 374.582 283.133 374.582 283.39 374.524 283.82 374.406 284.421 374.29 285.023 374.232 285.528 374.232 285.938 374.232 287 374.471 287.752 374.95 288.194 375.429 288.634 376.092 288.855 376.939 288.855L377.07 288.855 377.07 289.521 376.843 289.521C375.47 289.498 374.443 289.184 373.762 288.579 373.082 287.974 372.742 287.041 372.742 285.779 372.742 285.294 372.81 284.742 372.948 284.123 373.085 283.504 373.154 283.089 373.154 282.879 373.154 282.476 373.015 282.147 372.738 281.893 372.46 281.639 372.041 281.503 371.48 281.486L371.48 280.767C372.041 280.749 372.46 280.614 372.738 280.359 373.015 280.105 373.154 279.777 373.154 279.374 373.154 279.164 373.085 278.749 372.948 278.129 372.81 277.51 372.742 276.959 372.742 276.473 372.742 275.264 373.082 274.358 373.762 273.752 374.443 273.148 375.47 272.834 376.843 272.811Z" fill="#000000" fill-rule="evenodd" fill-opacity="1" transform="matrix(1.0014 0 0 1 229.169 88.3233)"/><text fill="#000000" fill-opacity="1" font-family="Cambria Math,Cambria Math_MSFontService,sans-serif" font-style="normal" font-variant="normal" font-weight="400" font-stretch="normal" font-size="18" text-anchor="start" direction="ltr" writing-mode="lr-tb" unicode-bidi="normal" text-decoration="none" transform="matrix(0.998374 0 0 0.996979 607.294 374)">𝐵</text><text fill="#000000" fill-opacity="1" font-family="Cambria Math,Cambria Math_MSFontService,sans-serif" font-style="normal" font-variant="normal" font-weight="400" font-stretch="normal" font-size="18" text-anchor="start" direction="ltr" writing-mode="lr-tb" unicode-bidi="normal" text-decoration="none" transform="matrix(0.998374 0 0 0.996979 631.585 374)">=</text><text fill="#000000" fill-opacity="1" font-family="Cambria Math,Cambria Math_MSFontService,sans-serif" font-style="normal" font-variant="normal" font-weight="400" font-stretch="normal" font-size="18" text-anchor="start" direction="ltr" writing-mode="lr-tb" unicode-bidi="normal" text-decoration="none" transform="matrix(0.998374 0 0 0.996979 650.055 374)">{</text><text fill="#000000" fill-opacity="1" font-family="Cambria Math,Cambria Math_MSFontService,sans-serif" font-style="normal" font-variant="normal" font-weight="400" font-stretch="normal" font-size="18" text-anchor="start" direction="ltr" writing-mode="lr-tb" unicode-bidi="normal" text-decoration="none" transform="matrix(0.998374 0 0 0.996979 657.043 374)">𝑒𝑒</text><text fill="#000000" fill-opacity="1" font-family="Cambria Math,Cambria Math_MSFontService,sans-serif" font-style="normal" font-variant="normal" font-weight="400" font-stretch="normal" font-size="18" text-anchor="start" direction="ltr" writing-mode="lr-tb" unicode-bidi="normal" text-decoration="none" transform="matrix(0.998374 0 0 0.996979 675.159 374)">}</text></g></g></g></g></g></svg>